<?xml version="1.0" encoding="utf-8"?>
<!-- Generator: SketchAPI 2022.10.24.12 https://api.sketch.io -->
<svg version="1.1" xmlns="http://www.w3.org/2000/svg" xmlns:xlink="http://www.w3.org/1999/xlink" xmlns:sketchjs="https://sketch.io/dtd/" sketchjs:metadata="eyJuYW1lIjoiNGU2OTY3YzgtNzQ3NC00NDYwLTgyN2MtMDc0MjFhZjM2NDI0LnNrZXRjaHBhZCIsInN1cmZhY2UiOnsiaXNQYWludCI6dHJ1ZSwibWV0aG9kIjoiZmlsbCIsImJsZW5kIjoibm9ybWFsIiwiZW5hYmxlZCI6dHJ1ZSwib3BhY2l0eSI6MSwidHlwZSI6InBhdHRlcm4iLCJwYXR0ZXJuIjp7InR5cGUiOiJwYXR0ZXJuIiwicmVmbGVjdCI6Im5vLXJlZmxlY3QiLCJyZXBlYXQiOiJyZXBlYXQiLCJzbW9vdGhpbmciOmZhbHNlLCJzcmMiOiJ0cmFuc3BhcmVudExpZ2h0Iiwic3giOjEsInN5IjoxLCJ4MCI6MC41LCJ4MSI6MSwieTAiOjAuNSwieTEiOjF9LCJpc0ZpbGwiOnRydWV9LCJjbGlwUGF0aCI6eyJlbmFibGVkIjp0cnVlLCJzdHlsZSI6eyJzdHJva2VTdHlsZSI6ImJsYWNrIiwibGluZVdpZHRoIjoxfX0sImRlc2NyaXB0aW9uIjoiTWFkZSB3aXRoIFNrZXRjaHBhZCIsIm1ldGFkYXRhIjp7fSwiZXhwb3J0RFBJIjo3MiwiZXhwb3J0Rm9ybWF0IjoicG5nIiwiZXhwb3J0UXVhbGl0eSI6MC45NSwidW5pdHMiOiJweCIsIndpZHRoIjozMzcsImhlaWdodCI6MjYzLCJwYWdlcyI6W3sid2lkdGgiOjMzNywiaGVpZ2h0IjoyNjN9XSwidXVpZCI6IjE3Y2JiMTAyLTAzNDAtNDIwZS1iZWM2LTBiNDc0OWY3MDVmMiJ9" width="337" height="263" viewBox="0 0 337 263">
<path style="fill: none; stroke: #000000; mix-blend-mode: source-over; stroke-dasharray: none; stroke-dashoffset: 0; stroke-linecap: round; stroke-linejoin: miter; stroke-miterlimit: 4; stroke-opacity: 1; stroke-width: 2;" sketchjs:tool="path" d="M2 56 L88 8 223 0 290 48 293 135 329 183 263 254 191 255 120 230 42 211 9 146 0 90 2 56 z" transform="matrix(1,0,0,1,3,3)"/>
<path style="fill: #cef28f; mix-blend-mode: source-over; fill-opacity: 1;" sketchjs:tool="floodfill" d="M1 88 L1 95 2 95 2 101 3 101 3 107 4 107 4 113 5 113 5 119 6 119 6 126 7 126 7 132 8 132 9 144 10 144 10 146 11 146 11 148 12 148 12 150 13 150 13 152 14 152 14 154 15 154 15 156 16 156 16 158 17 158 17 160 18 160 19 164 21 165 21 167 22 167 22 169 23 169 23 171 24 171 24 173 25 173 25 175 26 175 26 177 27 177 27 179 28 179 28 181 29 181 29 183 30 183 30 185 31 185 31 187 32 187 32 189 33 189 33 191 34 191 34 193 35 193 35 195 36 195 36 197 37 197 37 199 38 199 38 201 39 201 39 203 40 203 40 205 41 205 41 207 42 207 42 208 45 208 45 209 49 209 49 210 53 210 53 211 57 211 57 212 61 212 61 213 65 213 65 214 69 214 69 215 74 215 74 216 78 216 78 217 82 217 82 218 86 218 86 219 90 219 90 220 94 220 94 221 98 221 98 222 102 222 102 223 106 223 106 224 110 224 110 225 115 225 115 226 119 226 119 227 125 228 125 229 127 229 127 230 130 230 130 231 133 231 133 232 136 232 136 233 139 233 139 234 145 235 145 236 147 236 147 237 150 237 150 238 153 238 153 239 156 239 156 240 162 241 162 242 164 242 164 243 167 243 167 244 170 244 170 245 173 245 173 246 179 247 179 248 181 248 181 249 184 249 184 250 187 250 187 251 190 251 190 252 194 252 194 251 261 251 261 250 262 250 262 249 263 249 263 248 264 248 264 247 265 247 265 246 266 246 266 245 267 245 267 244 268 244 268 243 269 243 269 242 270 242 270 241 271 241 271 240 272 240 272 239 274 238 274 236 275 236 275 235 276 235 276 234 277 234 277 233 278 233 278 232 279 232 279 231 280 231 280 230 281 230 281 229 282 229 282 228 283 228 283 227 284 227 284 226 285 226 285 225 287 224 287 222 288 222 288 221 289 221 289 220 290 220 290 219 291 219 291 218 292 218 292 217 293 217 293 216 294 216 294 215 295 215 295 214 296 214 296 213 297 213 297 212 298 212 298 211 300 210 300 208 301 208 301 207 302 207 302 206 303 206 303 205 304 205 304 204 305 204 305 203 306 203 306 202 307 202 307 201 308 201 308 200 309 200 309 199 310 199 310 198 311 198 311 197 313 196 313 194 314 194 314 193 315 193 315 192 316 192 316 191 317 191 317 190 318 190 318 189 319 189 319 188 320 188 320 187 321 187 321 186 322 186 322 185 323 185 323 184 324 184 324 183 326 182 326 180 325 180 325 179 323 178 323 176 322 176 322 175 320 174 320 172 318 171 318 170 317 170 317 168 316 168 316 167 314 166 314 164 313 164 313 163 311 162 311 160 310 160 310 159 308 158 308 156 307 156 307 155 305 154 305 152 304 152 304 151 302 150 302 148 301 148 301 147 299 146 299 144 298 144 298 143 296 142 296 140 295 140 295 139 293 138 293 136 291 135 291 132 290 132 290 103 289 103 289 74 288 74 288 47 287 47 286 45 284 45 283 43 281 43 281 42 280 42 279 40 277 40 276 38 274 38 274 37 273 37 272 35 270 35 269 33 267 33 267 32 266 32 265 30 263 30 262 28 260 28 260 27 259 27 258 25 256 25 255 23 253 23 253 22 252 22 251 20 249 20 248 18 246 18 246 17 245 17 244 15 242 15 241 13 239 13 239 12 238 12 237 10 235 10 234 8 232 8 232 7 231 7 230 5 228 5 228 4 227 4 226 2 224 2 223 0 204 0 204 1 187 1 187 2 170 2 170 3 153 3 153 4 136 4 136 5 119 5 119 6 102 6 102 7 87 7 87 8 85 8 84 10 82 10 82 11 80 11 80 12 76 13 75 15 73 15 73 16 71 16 71 17 67 18 66 20 64 20 64 21 62 21 62 22 58 23 57 25 55 25 55 26 53 26 53 27 49 28 48 30 46 30 46 31 42 32 41 34 39 34 39 35 37 35 37 36 33 37 32 39 30 39 30 40 28 40 28 41 24 42 23 44 21 44 21 45 19 45 19 46 15 47 14 49 12 49 12 50 10 50 10 51 6 52 5 54 3 54 3 55 2 55 2 70 1 70 1 87 0 87 0 88 1 88 " transform="matrix(1,0,0,1,4,5)"/>
<path style="fill: #524632; mix-blend-mode: source-over; fill-opacity: 1;" sketchjs:tool="floodfill" d="M1 88 L1 95 2 95 2 101 3 101 3 107 4 107 4 113 5 113 5 119 6 119 6 126 7 126 7 132 9 133 9 144 10 144 10 146 11 146 11 148 12 148 12 150 13 150 13 152 14 152 14 154 15 154 15 156 16 156 17 160 19 160 19 164 21 164 21 167 22 167 22 169 23 169 23 171 24 171 24 173 25 173 25 175 26 175 26 177 27 177 27 179 28 179 28 181 29 181 29 183 30 183 30 185 31 185 31 187 32 187 32 189 33 189 33 191 34 191 34 193 35 193 35 195 36 195 36 197 37 197 37 199 38 199 38 201 39 201 39 203 40 203 40 205 41 205 41 207 42 207 42 208 45 208 45 209 49 209 49 210 53 210 53 211 57 211 57 212 61 212 61 213 65 213 65 214 69 214 69 215 74 215 74 216 78 216 78 217 82 217 82 218 86 218 86 219 90 219 90 220 94 220 94 221 98 221 98 222 102 222 102 223 106 223 106 224 110 224 110 225 115 225 115 226 119 226 119 227 124 227 124 228 125 228 125 229 127 229 127 230 130 230 130 231 133 231 133 232 136 232 136 233 139 233 139 234 144 234 144 235 145 235 145 236 147 236 147 237 150 237 150 238 153 238 153 239 156 239 156 240 161 240 161 241 162 241 162 242 164 242 164 243 167 243 167 244 170 244 170 245 173 245 173 246 178 246 179 248 181 248 181 249 184 249 184 250 187 250 187 251 190 251 190 252 194 252 194 251 261 251 261 250 262 250 262 249 263 249 263 248 264 248 264 247 265 247 265 246 266 246 266 245 267 245 267 244 268 244 268 243 269 243 269 242 270 242 270 241 272 240 272 238 274 238 274 236 275 236 275 235 276 235 276 234 277 234 277 233 278 233 278 232 279 232 279 231 280 231 280 230 281 230 281 229 282 229 282 228 283 228 283 227 285 226 285 224 287 224 287 222 288 222 288 221 289 221 289 220 290 220 290 219 291 219 291 218 292 218 292 217 293 217 293 216 294 216 294 215 295 215 295 214 296 214 296 213 298 212 298 210 300 210 300 208 301 208 301 207 302 207 302 206 303 206 303 205 304 205 304 204 305 204 305 203 306 203 306 202 307 202 307 201 308 201 308 200 309 200 309 199 311 198 311 196 313 196 313 194 314 194 314 193 315 193 315 192 316 192 316 191 317 191 317 190 318 190 318 189 319 189 319 188 320 188 320 187 321 187 321 186 322 186 322 185 324 184 324 182 326 182 326 180 325 180 325 179 323 179 323 176 322 176 322 175 320 175 320 172 318 172 318 171 318 170 317 170 317 168 316 168 316 167 314 167 314 164 313 164 313 163 311 163 311 160 310 160 310 159 308 159 308 156 307 156 307 155 305 155 305 152 304 152 304 151 302 151 302 148 301 148 301 147 299 147 299 144 298 144 298 143 296 143 296 140 295 140 295 139 293 139 293 136 291 136 291 132 290 132 290 103 289 103 289 74 288 74 288 47 286 47 286 45 283 45 283 43 279 42 279 40 276 40 276 38 272 37 272 35 269 35 269 33 265 32 265 30 262 30 262 28 258 27 258 25 255 25 255 23 251 22 251 20 248 20 248 18 244 17 244 15 241 15 241 13 237 12 237 10 234 10 234 8 230 7 230 5 226 4 226 2 223 2 223 0 204 0 204 1 187 1 187 2 170 2 170 3 153 3 153 4 136 4 136 5 119 5 119 6 102 6 102 7 87 7 87 8 85 8 85 10 82 10 82 11 80 11 79 13 76 13 76 15 73 15 73 16 71 16 70 18 67 18 67 20 64 20 64 21 62 21 61 23 58 23 58 25 55 25 55 26 53 26 52 28 49 28 49 30 46 30 45 32 42 32 42 34 39 34 39 35 37 35 36 37 33 37 33 39 30 39 30 40 28 40 27 42 24 42 24 44 21 44 21 45 19 45 18 47 15 47 15 49 12 49 12 50 10 50 9 52 6 52 6 54 3 54 3 55 2 55 2 70 1 70 1 87 0 87 0 88 1 88 " transform="matrix(1,0,0,1,4,5)"/>
<path style="fill: #524632; mix-blend-mode: source-over; fill-opacity: 1;" sketchjs:tool="floodfill" d="M1 1 L1 0 0 0 0 3 0 4 1 4 1 1 " transform="matrix(1,0,0,1,296,121)"/>
<path style="fill: #524632; mix-blend-mode: source-over; fill-opacity: 1;" sketchjs:tool="floodfill" d="M1 1 L1 0 0 0 0 1 1 1 " transform="matrix(1,0,0,1,298,143)"/>
<path style="fill: #524632; mix-blend-mode: source-over; fill-opacity: 1;" sketchjs:tool="floodfill" d="M1 88 L1 95 2 95 2 101 3 101 3 107 4 107 4 113 5 113 5 119 6 119 6 126 7 126 7 132 9 132 9 144 10 144 10 146 11 146 11 148 12 148 12 150 13 150 13 152 14 152 15 156 17 156 17 160 19 160 19 164 21 164 21 167 22 167 22 169 23 169 23 171 24 171 24 173 25 173 25 175 26 175 26 177 27 177 27 179 28 179 28 181 29 181 29 183 30 183 30 185 31 185 31 187 32 187 32 189 33 189 33 191 34 191 34 193 35 193 35 195 36 195 36 197 37 197 37 199 38 199 38 201 39 201 39 203 40 203 40 205 41 205 41 207 42 207 42 208 45 208 45 209 49 209 49 210 53 210 53 211 57 211 57 212 61 212 61 213 65 213 65 214 69 214 69 215 74 215 74 216 78 216 78 217 82 217 82 218 86 218 86 219 90 219 90 220 94 220 94 221 98 221 98 222 102 222 102 223 106 223 106 224 110 224 110 225 115 225 115 226 119 226 119 227 124 227 124 228 125 228 125 229 127 229 127 230 130 230 130 231 133 231 133 232 136 232 136 233 139 233 139 234 144 234 144 235 145 235 145 236 147 236 147 237 150 237 150 238 153 238 153 239 156 239 156 240 161 240 162 242 164 242 164 243 167 243 167 244 170 244 170 245 173 245 173 246 179 246 179 248 181 248 181 249 184 249 184 250 187 250 187 251 190 251 190 252 194 252 194 251 261 251 261 250 262 250 262 249 263 249 263 248 264 248 264 247 265 247 265 246 266 246 266 245 267 245 267 244 268 244 268 243 269 243 269 242 270 242 270 241 272 240 272 238 274 238 274 236 275 236 275 235 276 235 276 234 277 234 277 233 278 233 278 232 279 232 279 231 280 231 280 230 281 230 281 229 282 229 282 228 283 228 283 227 285 226 285 224 287 224 287 222 288 222 288 221 289 221 289 220 290 220 290 219 291 219 291 218 292 218 292 217 293 217 293 216 294 216 294 215 295 215 295 214 296 214 296 213 298 212 298 210 300 210 300 208 301 208 301 207 302 207 302 206 303 206 303 205 304 205 304 204 305 204 305 203 306 203 306 202 307 202 307 201 308 201 308 200 309 200 309 199 311 198 311 196 313 196 313 194 314 194 314 193 315 193 315 192 316 192 316 191 317 191 317 190 318 190 318 189 319 189 319 188 320 188 320 187 321 187 321 186 322 186 322 185 324 184 324 182 326 182 326 180 325 180 325 179 323 179 323 176 322 176 322 175 320 175 320 172 318 172 318 170 317 170 317 168 316 168 316 167 314 167 314 164 313 164 313 163 311 163 311 160 310 160 310 159 308 159 308 156 307 156 307 155 305 155 305 152 304 152 304 151 302 151 302 148 301 148 301 147 299 147 299 144 298 144 298 143 296 143 296 140 295 140 295 138 293 139 293 136 291 136 291 132 290 132 290 103 289 103 289 74 288 74 288 47 286 47 286 45 283 45 283 43 280 43 280 42 279 42 279 40 276 40 276 38 273 38 273 37 272 37 272 35 269 35 269 33 266 33 266 32 265 32 265 30 262 30 262 28 259 28 259 27 258 27 258 25 255 25 255 23 252 23 252 22 251 22 251 20 248 20 248 18 245 18 245 17 244 17 244 15 241 15 241 13 238 13 238 12 237 12 237 10 234 10 234 8 231 8 231 7 230 7 230 5 227 5 227 4 226 4 226 2 223 2 223 0 204 0 204 1 187 1 187 2 170 2 170 3 153 3 153 4 136 4 136 5 119 5 119 6 102 6 102 7 87 7 87 8 85 8 85 10 82 10 82 11 80 11 80 13 76 13 76 15 73 15 73 16 71 16 71 18 67 18 67 20 64 20 64 21 62 21 62 23 58 23 58 25 55 25 55 26 53 26 53 28 49 28 49 30 46 30 46 32 42 32 42 34 39 34 39 35 37 35 37 37 33 37 33 39 30 39 30 40 28 40 28 42 24 42 24 44 21 44 21 45 19 45 19 47 15 47 15 49 12 49 12 50 10 50 10 52 6 52 6 54 3 54 3 55 2 55 2 70 1 70 1 87 0 87 0 88 1 88 " transform="matrix(1,0,0,1,4,5)"/>
<path style="fill: #524632; mix-blend-mode: source-over; fill-opacity: 1;" sketchjs:tool="floodfill" d="M1 88 L1 95 2 95 2 101 3 101 3 107 4 107 4 113 5 113 5 119 6 119 6 126 7 126 7 132 9 132 9 144 10 144 10 146 11 146 11 148 12 148 12 150 13 150 13 152 14 152 15 156 17 156 17 160 19 160 19 164 21 164 21 167 22 167 22 169 23 169 23 171 24 171 24 173 25 173 25 175 26 175 26 177 27 177 27 179 28 179 28 181 29 181 29 183 30 183 30 185 31 185 31 187 32 187 32 189 33 189 33 191 34 191 34 193 35 193 35 195 36 195 36 197 37 197 37 199 38 199 38 201 39 201 39 203 40 203 40 205 41 205 41 207 42 207 42 208 45 208 45 209 49 209 49 210 53 210 53 211 57 211 57 212 61 212 61 213 65 213 65 214 69 214 69 215 74 215 74 216 78 216 78 217 82 217 82 218 86 218 86 219 90 219 90 220 94 220 94 221 98 221 98 222 102 222 102 223 106 223 106 224 110 224 110 225 115 225 115 226 119 226 119 227 124 227 124 228 125 228 125 229 127 229 127 230 130 230 130 231 133 231 133 232 136 232 136 233 139 233 139 234 144 234 144 235 145 235 145 236 147 236 147 237 150 237 150 238 153 238 153 239 156 239 156 240 161 240 162 242 164 242 164 243 167 243 167 244 170 244 170 245 173 245 173 246 179 246 179 248 181 248 181 249 184 249 184 250 187 250 187 251 190 251 190 252 194 252 194 251 261 251 261 250 262 250 262 249 263 249 263 248 264 248 264 247 265 247 265 246 266 246 266 245 267 245 267 244 268 244 268 243 269 243 269 242 270 242 270 241 272 240 272 238 274 238 274 236 275 236 275 235 276 235 276 234 277 234 277 233 278 233 278 232 279 232 279 231 280 231 280 230 281 230 281 229 282 229 282 228 283 228 283 227 285 226 285 224 287 224 287 222 288 222 288 221 289 221 289 220 290 220 290 219 291 219 291 218 292 218 292 217 293 217 293 216 294 216 294 215 295 215 295 214 296 214 296 213 298 212 298 210 300 210 300 208 301 208 301 207 302 207 302 206 303 206 303 205 304 205 304 204 305 204 305 203 306 203 306 202 307 202 307 201 308 201 308 200 309 200 309 199 311 198 311 196 313 196 313 194 314 194 314 193 315 193 315 192 316 192 316 191 317 191 317 190 318 190 318 189 319 189 319 188 320 188 320 187 321 187 321 186 322 186 322 185 324 184 324 182 326 182 326 180 325 180 325 179 323 179 323 176 322 176 322 175 320 175 320 172 318 172 318 170 317 170 317 168 316 168 316 167 314 167 314 164 313 164 313 163 311 163 311 160 310 160 310 159 308 159 308 156 307 156 307 155 305 155 305 152 304 152 304 151 302 151 302 148 301 148 301 147 299 147 299 144 298 144 298 143 296 143 296 140 295 140 295 138 293 139 293 136 291 136 291 132 290 132 290 103 289 103 289 74 288 74 288 47 286 47 286 45 283 45 283 43 280 43 280 42 279 42 279 40 276 40 276 38 273 38 273 37 272 37 272 35 269 35 269 33 266 33 266 32 265 32 265 30 262 30 262 28 259 28 259 27 258 27 258 25 255 25 255 23 252 23 252 22 251 22 251 20 248 20 248 18 245 18 245 17 244 17 244 15 241 15 241 13 238 13 238 12 237 12 237 10 234 10 234 8 231 8 231 7 230 7 230 5 227 5 227 4 226 4 226 2 223 2 223 0 204 0 204 1 187 1 187 2 170 2 170 3 153 3 153 4 136 4 136 5 119 5 119 6 102 6 102 7 87 7 87 8 85 8 85 10 82 10 82 11 80 11 80 13 76 13 76 15 73 15 73 16 71 16 71 18 67 18 67 20 64 20 64 21 62 21 62 23 58 23 58 25 55 25 55 26 53 26 53 28 49 28 49 30 46 30 46 32 42 32 42 34 39 34 39 35 37 35 37 37 33 37 33 39 30 39 30 40 28 40 28 42 24 42 24 44 21 44 21 45 19 45 19 47 15 47 15 49 12 49 12 50 10 50 10 52 6 52 6 54 3 54 3 55 2 55 2 70 1 70 1 87 0 87 0 88 1 88 " transform="matrix(1,0,0,1,4,5)"/>
<path style="fill: #524632; mix-blend-mode: source-over; fill-opacity: 1;" sketchjs:tool="floodfill" d="M1 88 L1 95 2 95 2 101 3 101 3 107 4 107 4 113 5 113 5 119 6 119 6 126 7 126 7 132 9 132 9 144 10 144 10 146 11 146 11 148 12 148 12 150 13 150 13 152 14 152 15 156 17 156 17 160 19 160 19 164 21 164 21 167 22 167 22 169 23 169 23 171 24 171 24 173 25 173 25 175 26 175 26 177 27 177 27 179 28 179 28 181 29 181 29 183 30 183 30 185 31 185 31 187 32 187 32 189 33 189 33 191 34 191 34 193 35 193 35 195 36 195 36 197 37 197 37 199 38 199 38 201 39 201 39 203 40 203 40 205 41 205 41 207 42 207 42 208 45 208 45 209 49 209 49 210 53 210 53 211 57 211 57 212 61 212 61 213 65 213 65 214 69 214 69 215 74 215 74 216 78 216 78 217 82 217 82 218 86 218 86 219 90 219 90 220 94 220 94 221 98 221 98 222 102 222 102 223 106 223 106 224 110 224 110 225 115 225 115 226 119 226 119 227 124 227 124 228 125 228 125 229 127 229 127 230 130 230 130 231 133 231 133 232 136 232 136 233 139 233 139 234 144 234 144 235 145 235 145 236 147 236 147 237 150 237 150 238 153 238 153 239 156 239 156 240 161 240 162 242 164 242 164 243 167 243 167 244 170 244 170 245 173 245 173 246 179 246 179 248 181 248 181 249 184 249 184 250 187 250 187 251 190 251 190 252 194 252 194 251 261 251 261 250 262 250 262 249 263 249 263 248 264 248 264 247 265 247 265 246 266 246 266 245 267 245 267 244 268 244 268 243 269 243 269 242 270 242 270 241 272 240 272 238 274 238 274 236 275 236 275 235 276 235 276 234 277 234 277 233 278 233 278 232 279 232 279 231 280 231 280 230 281 230 281 229 282 229 282 228 283 228 283 227 285 226 285 224 287 224 287 222 288 222 288 221 289 221 289 220 290 220 290 219 291 219 291 218 292 218 292 217 293 217 293 216 294 216 294 215 295 215 295 214 296 214 296 213 298 212 298 210 300 210 300 208 301 208 301 207 302 207 302 206 303 206 303 205 304 205 304 204 305 204 305 203 306 203 306 202 307 202 307 201 308 201 308 200 309 200 309 199 311 198 311 196 313 196 313 194 314 194 314 193 315 193 315 192 316 192 316 191 317 191 317 190 318 190 318 189 319 189 319 188 320 188 320 187 321 187 321 186 322 186 322 185 324 184 324 182 326 182 326 180 325 180 325 179 323 179 323 176 322 176 322 175 320 175 320 172 318 172 318 170 317 170 317 168 316 168 316 167 314 167 314 164 313 164 313 163 311 163 311 160 310 160 310 159 308 159 308 156 307 156 307 155 305 155 305 152 304 152 304 151 302 151 302 148 301 148 301 147 299 147 299 144 298 144 298 143 296 143 296 140 295 140 295 138 293 139 293 136 291 136 291 132 290 132 290 103 289 103 289 74 288 74 288 47 286 47 286 45 283 45 283 43 280 43 280 42 279 42 279 40 276 40 276 38 273 38 273 37 272 37 272 35 269 35 269 33 266 33 266 32 265 32 265 30 262 30 262 28 259 28 259 27 258 27 258 25 255 25 255 23 252 23 252 22 251 22 251 20 248 20 248 18 245 18 245 17 244 17 244 15 241 15 241 13 238 13 238 12 237 12 237 10 234 10 234 8 231 8 231 7 230 7 230 5 227 5 227 4 226 4 226 2 223 2 223 0 204 0 204 1 187 1 187 2 170 2 170 3 153 3 153 4 136 4 136 5 119 5 119 6 102 6 102 7 87 7 87 8 85 8 85 10 82 10 82 11 80 11 80 13 76 13 76 15 73 15 73 16 71 16 71 18 67 18 67 20 64 20 64 21 62 21 62 23 58 23 58 25 55 25 55 26 53 26 53 28 49 28 49 30 46 30 46 32 42 32 42 34 39 34 39 35 37 35 37 37 33 37 33 39 30 39 30 40 28 40 28 42 24 42 24 44 21 44 21 45 19 45 19 47 15 47 15 49 12 49 12 50 10 50 10 52 6 52 6 54 3 54 3 55 2 55 2 70 1 70 1 87 0 87 0 88 1 88 " transform="matrix(1,0,0,1,4,5)"/>
<path style="fill: #524632; mix-blend-mode: source-over; fill-opacity: 1;" sketchjs:tool="floodfill" d="M1 88 L1 95 2 95 2 101 3 101 3 107 4 107 4 113 5 113 5 119 6 119 6 126 7 126 7 132 9 132 9 144 10 144 10 146 11 146 11 148 12 148 12 150 13 150 13 152 14 152 15 156 17 156 17 160 19 160 19 164 21 164 21 167 22 167 22 169 23 169 23 171 24 171 24 173 25 173 25 175 26 175 26 177 27 177 27 179 28 179 28 181 29 181 29 183 30 183 30 185 31 185 31 187 32 187 32 189 33 189 33 191 34 191 34 193 35 193 35 195 36 195 36 197 37 197 37 199 38 199 38 201 39 201 39 203 40 203 40 205 41 205 41 207 42 207 42 208 45 208 45 209 49 209 49 210 53 210 53 211 57 211 57 212 61 212 61 213 65 213 65 214 69 214 69 215 74 215 74 216 78 216 78 217 82 217 82 218 86 218 86 219 90 219 90 220 94 220 94 221 98 221 98 222 102 222 102 223 106 223 106 224 110 224 110 225 115 225 115 226 119 226 119 227 124 227 124 228 125 228 125 229 127 229 127 230 130 230 130 231 133 231 133 232 136 232 136 233 139 233 139 234 144 234 144 235 145 235 145 236 147 236 147 237 150 237 150 238 153 238 153 239 156 239 156 240 161 240 162 242 164 242 164 243 167 243 167 244 170 244 170 245 173 245 173 246 179 246 179 248 181 248 181 249 184 249 184 250 187 250 187 251 190 251 190 252 194 252 194 251 261 251 261 250 262 250 262 249 263 249 263 248 264 248 264 247 265 247 265 246 266 246 266 245 267 245 267 244 268 244 268 243 269 243 270 241 272 241 272 238 274 238 274 236 275 236 275 235 276 235 276 234 277 234 277 233 278 233 278 232 279 232 279 231 280 231 280 230 281 230 281 229 282 229 283 227 285 227 285 224 287 224 287 222 288 222 288 221 289 221 289 220 290 220 290 219 291 219 291 218 292 218 292 217 293 217 293 216 294 216 294 215 295 215 296 213 298 213 298 210 300 210 300 208 301 208 301 207 302 207 302 206 303 206 303 205 304 205 304 204 305 204 305 203 306 203 306 202 307 202 307 201 308 201 309 199 311 199 311 196 313 196 313 194 314 194 314 193 315 193 315 192 316 192 316 191 317 191 317 190 318 190 318 189 319 189 319 188 320 188 320 187 321 187 322 185 324 185 324 182 326 182 326 180 325 180 325 179 323 179 323 176 322 176 322 175 320 175 320 172 318 172 318 170 317 170 317 168 316 168 316 167 314 167 314 164 313 164 313 163 311 163 311 160 310 160 310 159 308 159 308 156 307 156 307 155 305 155 305 152 304 152 304 151 302 151 302 148 301 148 301 147 299 147 299 144 298 144 298 143 296 143 296 140 295 140 295 138 293 139 293 136 291 136 291 132 290 132 290 103 289 103 289 74 288 74 288 47 286 47 286 45 283 45 283 43 280 43 280 42 279 42 279 40 276 40 276 38 273 38 273 37 272 37 272 35 269 35 269 33 266 33 266 32 265 32 265 30 262 30 262 28 259 28 259 27 258 27 258 25 255 25 255 23 252 23 252 22 251 22 251 20 248 20 248 18 245 18 245 17 244 17 244 15 241 15 241 13 238 13 238 12 237 12 237 10 234 10 234 8 231 8 231 7 230 7 230 5 227 5 227 4 226 4 226 2 223 2 223 0 204 0 204 1 187 1 187 2 170 2 170 3 153 3 153 4 136 4 136 5 119 5 119 6 102 6 102 7 87 7 87 8 85 8 85 10 82 10 82 11 80 11 80 13 76 13 76 15 73 15 73 16 71 16 71 18 67 18 67 20 64 20 64 21 62 21 62 23 58 23 58 25 55 25 55 26 53 26 53 28 49 28 49 30 46 30 46 32 42 32 42 34 39 34 39 35 37 35 37 37 33 37 33 39 30 39 30 40 28 40 28 42 24 42 24 44 21 44 21 45 19 45 19 47 15 47 15 49 12 49 12 50 10 50 10 52 6 52 6 54 3 54 3 55 2 55 2 70 1 70 1 87 0 87 0 88 1 88 " transform="matrix(1,0,0,1,4,5)"/>
<path style="fill: #524632; mix-blend-mode: source-over; fill-opacity: 1;" sketchjs:tool="floodfill" d="M1 88 L1 95 2 95 2 101 3 101 3 107 4 107 4 113 5 113 5 119 6 119 6 126 7 126 7 132 9 132 9 144 10 144 10 146 11 146 11 148 12 148 12 150 13 150 13 152 14 152 15 156 17 156 17 160 19 160 19 164 21 164 21 167 22 167 22 169 23 169 23 171 24 171 24 173 25 173 25 175 26 175 26 177 27 177 27 179 28 179 28 181 29 181 29 183 30 183 30 185 31 185 31 187 32 187 32 189 33 189 33 191 34 191 34 193 35 193 35 195 36 195 36 197 37 197 37 199 38 199 38 201 39 201 39 203 40 203 40 205 41 205 41 207 42 207 42 208 45 208 45 209 49 209 49 210 53 210 53 211 57 211 57 212 61 212 61 213 65 213 65 214 69 214 69 215 74 215 74 216 78 216 78 217 82 217 82 218 86 218 86 219 90 219 90 220 94 220 94 221 98 221 98 222 102 222 102 223 106 223 106 224 110 224 110 225 115 225 115 226 119 226 119 227 124 227 124 228 125 228 125 229 127 229 127 230 130 230 130 231 133 231 133 232 136 232 136 233 139 233 139 234 144 234 144 235 145 235 145 236 147 236 147 237 150 237 150 238 153 238 153 239 156 239 156 240 161 240 162 242 164 242 164 243 167 243 167 244 170 244 170 245 173 245 173 246 179 246 179 248 181 248 181 249 184 249 184 250 187 250 187 251 190 251 190 252 194 252 194 251 261 251 261 250 262 250 262 249 263 249 263 248 264 248 264 247 265 247 265 246 266 246 266 245 267 245 267 244 268 244 268 243 269 243 270 241 272 241 272 238 274 238 274 236 275 236 275 235 276 235 276 234 277 234 277 233 278 233 278 232 279 232 279 231 280 231 280 230 281 230 281 229 282 229 283 227 285 227 285 224 287 224 287 222 288 222 288 221 289 221 289 220 290 220 290 219 291 219 291 218 292 218 292 217 293 217 293 216 294 216 294 215 295 215 296 213 298 213 298 210 300 210 300 208 301 208 301 207 302 207 302 206 303 206 303 205 304 205 304 204 305 204 305 203 306 203 306 202 307 202 307 201 308 201 309 199 311 199 311 196 313 196 313 194 314 194 314 193 315 193 315 192 316 192 316 191 317 191 317 190 318 190 318 189 319 189 319 188 320 188 320 187 321 187 322 185 324 185 324 182 326 182 326 180 325 180 325 179 323 179 323 176 322 176 322 175 320 175 320 172 318 172 318 170 317 170 317 168 316 168 316 167 314 167 314 164 313 164 313 163 311 163 311 160 310 160 310 159 308 159 308 156 307 156 307 155 305 155 305 152 304 152 304 151 302 151 302 148 301 148 301 147 299 147 299 144 298 144 298 143 296 143 296 140 295 140 295 138 293 139 293 136 291 136 291 132 290 132 290 103 289 103 289 74 288 74 288 47 286 47 286 45 283 45 283 43 280 43 280 42 279 42 279 40 276 40 276 38 273 38 273 37 272 37 272 35 269 35 269 33 266 33 266 32 265 32 265 30 262 30 262 28 259 28 259 27 258 27 258 25 255 25 255 23 252 23 252 22 251 22 251 20 248 20 248 18 245 18 245 17 244 17 244 15 241 15 241 13 238 13 238 12 237 12 237 10 234 10 234 8 231 8 231 7 230 7 230 5 227 5 227 4 226 4 226 2 223 2 223 0 204 0 204 1 187 1 187 2 170 2 170 3 153 3 153 4 136 4 136 5 119 5 119 6 102 6 102 7 87 7 87 8 85 8 85 10 82 10 82 11 80 11 80 13 76 13 76 15 73 15 73 16 71 16 71 18 67 18 67 20 64 20 64 21 62 21 62 23 58 23 58 25 55 25 55 26 53 26 53 28 49 28 49 30 46 30 46 32 42 32 42 34 39 34 39 35 37 35 37 37 33 37 33 39 30 39 30 40 28 40 28 42 24 42 24 44 21 44 21 45 19 45 19 47 15 47 15 49 12 49 12 50 10 50 10 52 6 52 6 54 3 54 3 55 2 55 2 70 1 70 1 87 0 87 0 88 1 88 " transform="matrix(1,0,0,1,4,5)"/>
<path style="fill: #524632; mix-blend-mode: source-over; fill-opacity: 1;" sketchjs:tool="floodfill" d="M1 88 L1 95 2 95 2 101 3 101 3 107 4 107 4 113 5 113 5 119 6 119 6 126 7 126 7 132 9 132 9 144 10 144 10 146 11 146 11 148 12 148 12 150 13 150 13 152 14 152 15 156 17 156 17 160 19 160 19 164 21 164 21 167 22 167 22 169 23 169 23 171 24 171 24 173 25 173 25 175 26 175 26 177 27 177 27 179 28 179 28 181 29 181 29 183 30 183 30 185 31 185 31 187 32 187 32 189 33 189 33 191 34 191 34 193 35 193 35 195 36 195 36 197 37 197 37 199 38 199 38 201 39 201 39 203 40 203 40 205 41 205 41 207 42 207 42 208 45 208 45 209 49 209 49 210 53 210 53 211 57 211 57 212 61 212 61 213 65 213 65 214 69 214 69 215 74 215 74 216 78 216 78 217 82 217 82 218 86 218 86 219 90 219 90 220 94 220 94 221 98 221 98 222 102 222 102 223 106 223 106 224 110 224 110 225 115 225 115 226 119 226 119 227 124 227 124 228 125 228 125 229 127 229 127 230 130 230 130 231 133 231 133 232 136 232 136 233 139 233 139 234 144 234 144 235 145 235 145 236 147 236 147 237 150 237 150 238 153 238 153 239 156 239 156 240 161 240 162 242 164 242 164 243 167 243 167 244 170 244 170 245 173 245 173 246 179 246 179 248 181 248 181 249 184 249 184 250 187 250 187 251 190 251 190 252 194 252 194 251 261 251 261 250 262 250 262 249 263 249 263 248 264 248 264 247 265 247 265 246 266 246 266 245 267 245 267 244 268 244 268 243 269 243 270 241 272 241 272 238 274 238 274 236 275 236 275 235 276 235 276 234 277 234 277 233 278 233 278 232 279 232 279 231 280 231 280 230 281 230 281 229 282 229 283 227 285 227 285 224 287 224 287 222 288 222 288 221 289 221 289 220 290 220 290 219 291 219 291 218 292 218 292 217 293 217 293 216 294 216 294 215 295 215 296 213 298 213 298 210 300 210 300 208 301 208 301 207 302 207 302 206 303 206 303 205 304 205 304 204 305 204 305 203 306 203 306 202 307 202 307 201 308 201 309 199 311 199 311 196 313 196 313 194 314 194 314 193 315 193 315 192 316 192 316 191 317 191 317 190 318 190 318 189 319 189 319 188 320 188 320 187 321 187 322 185 324 185 324 182 326 182 326 180 325 180 325 179 323 179 323 176 322 176 322 175 320 175 320 172 318 172 318 170 317 170 317 168 316 168 316 167 314 167 314 164 313 164 313 163 311 163 311 160 310 160 310 159 308 159 308 156 307 156 307 155 305 155 305 152 304 152 304 151 302 151 302 148 301 148 301 147 299 147 299 144 298 144 298 143 296 143 296 140 295 140 295 138 293 139 293 136 291 136 291 132 290 132 290 103 289 103 289 74 288 74 288 47 286 47 286 45 283 45 283 43 280 43 280 42 279 42 279 40 276 40 276 38 273 38 273 37 272 37 272 35 269 35 269 33 266 33 266 32 265 32 265 30 262 30 262 28 259 28 259 27 258 27 258 25 255 25 255 23 252 23 252 22 251 22 251 20 248 20 248 18 245 18 245 17 244 17 244 15 241 15 241 13 238 13 238 12 237 12 237 10 234 10 234 8 231 8 231 7 230 7 230 5 227 5 227 4 226 4 226 2 223 2 223 0 204 0 204 1 187 1 187 2 170 2 170 3 153 3 153 4 136 4 136 5 119 5 119 6 102 6 102 7 87 7 87 8 85 8 85 10 82 10 82 11 80 11 80 13 76 13 76 15 73 15 73 16 71 16 71 18 67 18 67 20 64 20 64 21 62 21 62 23 58 23 58 25 55 25 55 26 53 26 53 28 49 28 49 30 46 30 46 32 42 32 42 34 39 34 39 35 37 35 37 37 33 37 33 39 30 39 30 40 28 40 28 42 24 42 24 44 21 44 21 45 19 45 19 47 15 47 15 49 12 49 12 50 10 50 10 52 6 52 6 54 3 54 3 55 2 55 2 70 1 70 1 87 0 87 0 88 1 88 " transform="matrix(1,0,0,1,4,5)"/>
<path style="fill: #524632; mix-blend-mode: source-over; fill-opacity: 1;" sketchjs:tool="floodfill" d="M1 88 L1 95 2 95 2 101 3 101 3 107 4 107 4 113 5 113 5 119 6 119 6 126 7 126 7 132 9 132 9 144 10 144 10 146 11 146 11 148 12 148 12 150 13 150 13 152 14 152 15 156 17 156 17 160 19 160 19 164 21 164 21 167 22 167 22 169 23 169 23 171 24 171 24 173 25 173 25 175 26 175 26 177 27 177 27 179 28 179 28 181 29 181 29 183 30 183 30 185 31 185 31 187 32 187 32 189 33 189 33 191 34 191 34 193 35 193 35 195 36 195 36 197 37 197 37 199 38 199 38 201 39 201 39 203 40 203 40 205 41 205 41 207 42 207 42 208 45 208 45 209 49 209 49 210 53 210 53 211 57 211 57 212 61 212 61 213 65 213 65 214 69 214 69 215 74 215 74 216 78 216 78 217 82 217 82 218 86 218 86 219 90 219 90 220 94 220 94 221 98 221 98 222 102 222 102 223 106 223 106 224 110 224 110 225 115 225 115 226 119 226 119 227 124 227 124 228 125 228 125 229 127 229 127 230 130 230 130 231 133 231 133 232 136 232 136 233 139 233 139 234 144 234 144 235 145 235 145 236 147 236 147 237 150 237 150 238 153 238 153 239 156 239 156 240 161 240 162 242 164 242 164 243 167 243 167 244 170 244 170 245 173 245 173 246 179 246 179 248 181 248 181 249 184 249 184 250 187 250 187 251 190 251 190 252 194 252 194 251 261 251 261 250 262 250 262 249 263 249 263 248 264 248 264 247 265 247 265 246 266 246 266 245 267 245 267 244 268 244 268 243 269 243 270 241 272 241 272 238 274 238 274 236 275 236 275 235 276 235 276 234 277 234 277 233 278 233 278 232 279 232 279 231 280 231 280 230 281 230 281 229 282 229 283 227 285 227 285 224 287 224 287 222 288 222 288 221 289 221 289 220 290 220 290 219 291 219 291 218 292 218 292 217 293 217 293 216 294 216 294 215 295 215 296 213 298 213 298 210 300 210 300 208 301 208 301 207 302 207 302 206 303 206 303 205 304 205 304 204 305 204 305 203 306 203 306 202 307 202 307 201 308 201 309 199 311 199 311 196 313 196 313 194 314 194 314 193 315 193 315 192 316 192 316 191 317 191 317 190 318 190 318 189 319 189 319 188 320 188 320 187 321 187 322 185 324 185 324 182 326 182 326 180 325 180 325 179 323 179 323 176 322 176 322 175 320 175 320 172 318 172 318 170 317 170 317 168 316 168 316 167 314 167 314 164 313 164 313 163 311 163 311 160 310 160 310 159 308 159 308 156 307 156 307 155 305 155 305 152 304 152 304 151 302 151 302 148 301 148 301 147 299 147 299 144 298 144 298 143 296 143 296 140 295 140 295 138 293 139 293 136 291 136 291 132 290 132 290 103 289 103 289 74 288 74 288 47 286 47 286 45 283 45 283 43 280 43 280 42 279 42 279 40 276 40 276 38 273 38 273 37 272 37 272 35 269 35 269 33 266 33 266 32 265 32 265 30 262 30 262 28 259 28 259 27 258 27 258 25 255 25 255 23 252 23 252 22 251 22 251 20 248 20 248 18 245 18 245 17 244 17 244 15 241 15 241 13 238 13 238 12 237 12 237 10 234 10 234 8 231 8 231 7 230 7 230 5 227 5 227 4 226 4 226 2 223 2 223 0 204 0 204 1 187 1 187 2 170 2 170 3 153 3 153 4 136 4 136 5 119 5 119 6 102 6 102 7 87 7 87 8 85 8 85 10 82 10 82 11 80 11 80 13 76 13 76 15 73 15 73 16 71 16 71 18 67 18 67 20 64 20 64 21 62 21 62 23 58 23 58 25 55 25 55 26 53 26 53 28 49 28 49 30 46 30 46 32 42 32 42 34 39 34 39 35 37 35 37 37 33 37 33 39 30 39 30 40 28 40 28 42 24 42 24 44 21 44 21 45 19 45 19 47 15 47 15 49 12 49 12 50 10 50 10 52 6 52 6 54 3 54 3 55 2 55 2 70 1 70 1 87 0 87 0 88 1 88 " transform="matrix(1,0,0,1,4,5)"/>
<path style="fill: #524632; mix-blend-mode: source-over; fill-opacity: 1;" sketchjs:tool="floodfill" d="M1 88 L1 95 2 95 2 101 3 101 3 107 4 107 4 113 5 113 5 119 6 119 6 126 7 126 7 132 9 132 9 144 10 144 10 146 11 146 11 148 12 148 12 150 13 150 13 152 14 152 14 155 15 155 15 156 17 156 17 160 19 160 19 164 21 164 21 167 22 167 22 169 23 169 23 171 24 171 24 173 25 173 25 175 26 175 26 177 27 177 27 179 28 179 28 181 29 181 29 183 30 183 30 185 31 185 31 187 32 187 32 189 33 189 33 191 34 191 34 193 35 193 35 195 36 195 36 197 37 197 37 199 38 199 38 201 39 201 39 203 40 203 40 205 41 205 41 207 42 207 42 208 45 208 45 209 49 209 49 210 53 210 53 211 57 211 57 212 61 212 61 213 65 213 65 214 69 214 69 215 74 215 74 216 78 216 78 217 82 217 82 218 86 218 86 219 90 219 90 220 94 220 94 221 98 221 98 222 102 222 102 223 106 223 106 224 110 224 110 225 115 225 115 226 119 226 119 227 124 227 124 228 125 228 125 229 127 229 127 230 130 230 130 231 133 231 133 232 136 232 136 233 139 233 139 234 144 234 144 235 145 235 145 236 147 236 147 237 150 237 150 238 153 238 153 239 156 239 156 240 161 240 162 242 164 242 164 243 167 243 167 244 170 244 170 245 173 245 173 246 179 246 179 248 181 248 181 249 184 249 184 250 187 250 187 251 190 251 190 252 194 252 194 251 261 251 261 250 262 250 262 249 263 249 263 248 264 248 264 247 265 247 265 246 266 246 266 245 267 245 267 244 268 244 268 243 269 243 270 241 272 241 272 238 274 238 274 236 275 236 275 235 276 235 276 234 277 234 277 233 278 233 278 232 279 232 279 231 280 231 280 230 281 230 281 229 282 229 283 227 285 227 285 224 287 224 287 222 288 222 288 221 289 221 289 220 290 220 290 219 291 219 291 218 292 218 292 217 293 217 293 216 294 216 294 215 295 215 296 213 298 213 298 210 300 210 300 208 301 208 301 207 302 207 302 206 303 206 303 205 304 205 304 204 305 204 305 203 306 203 306 202 307 202 307 201 308 201 309 199 311 199 311 196 313 196 313 194 314 194 314 193 315 193 315 192 316 192 316 191 317 191 317 190 318 190 318 189 319 189 319 188 320 188 320 187 321 187 322 185 324 185 324 182 326 182 326 180 325 180 325 179 323 179 323 176 322 176 322 175 320 175 320 172 318 172 318 170 317 170 317 168 316 168 316 167 314 167 314 164 313 164 313 163 311 163 311 160 310 160 310 159 308 159 308 156 307 156 307 155 305 155 305 152 304 152 304 151 302 151 302 148 301 148 301 147 299 147 299 144 298 144 298 143 296 143 296 140 295 140 295 138 293 139 293 136 291 136 291 132 290 132 290 103 289 103 289 74 288 74 288 47 286 47 286 45 283 45 283 43 280 43 280 42 279 42 279 40 276 40 276 38 273 38 273 37 272 37 272 35 269 35 269 33 266 33 266 32 265 32 265 30 262 30 262 28 259 28 259 27 258 27 258 25 255 25 255 23 252 23 252 22 251 22 251 20 248 20 248 18 245 18 245 17 244 17 244 15 241 15 241 13 238 13 238 12 237 12 237 10 234 10 234 8 231 8 231 7 230 7 230 5 227 5 227 4 226 4 226 2 223 2 223 0 204 0 204 1 187 1 187 2 170 2 170 3 153 3 153 4 136 4 136 5 119 5 119 6 102 6 102 7 87 7 87 8 85 8 85 10 82 10 82 11 80 11 80 13 76 13 76 15 73 15 73 16 71 16 71 18 67 18 67 20 64 20 64 21 62 21 62 23 58 23 58 25 55 25 55 26 53 26 53 28 49 28 49 30 46 30 46 32 42 32 42 34 39 34 39 35 37 35 37 37 33 37 33 39 30 39 30 40 28 40 28 42 24 42 24 44 21 44 21 45 19 45 19 47 15 47 15 49 12 49 12 50 10 50 10 52 6 52 6 54 3 54 3 55 2 55 2 70 1 70 1 87 0 87 0 88 1 88 " transform="matrix(1,0,0,1,4,5)"/>
<path style="fill: #524632; mix-blend-mode: source-over; fill-opacity: 1;" sketchjs:tool="floodfill" d="M1 88 L1 95 2 95 2 101 3 101 3 107 4 107 4 113 5 113 5 119 6 119 6 126 7 126 7 132 9 132 9 144 10 144 10 146 11 146 11 148 12 148 12 150 13 150 13 152 14 152 14 155 15 155 15 156 17 156 17 160 19 160 19 164 21 164 21 167 22 167 22 169 23 169 23 171 24 171 24 173 25 173 25 175 26 175 26 177 27 177 27 179 28 179 28 181 29 181 29 183 30 183 30 185 31 185 31 187 32 187 32 189 33 189 33 191 34 191 34 193 35 193 35 195 36 195 36 197 37 197 37 199 38 199 38 201 39 201 39 203 40 203 40 205 41 205 41 207 42 207 42 208 45 208 45 209 49 209 49 210 53 210 53 211 57 211 57 212 61 212 61 213 65 213 65 214 69 214 69 215 74 215 74 216 78 216 78 217 82 217 82 218 86 218 86 219 90 219 90 220 94 220 94 221 98 221 98 222 102 222 102 223 106 223 106 224 110 224 110 225 115 225 115 226 119 226 119 227 124 227 124 228 125 228 125 229 127 229 127 230 130 230 130 231 133 231 133 232 136 232 136 233 139 233 139 234 144 234 144 235 145 235 145 236 147 236 147 237 150 237 150 238 153 238 153 239 156 239 156 240 161 240 161 242 164 242 164 243 167 243 167 244 170 244 170 245 173 245 173 246 179 246 179 248 181 248 181 249 184 249 184 250 187 250 187 251 190 251 190 252 194 252 194 251 261 251 261 250 262 250 262 249 263 249 263 248 264 248 264 247 265 247 265 246 266 246 266 245 267 245 268 243 270 243 270 241 272 241 272 238 274 238 274 236 275 236 275 235 276 235 276 234 277 234 277 233 278 233 278 232 279 232 279 231 280 231 280 230 281 230 281 229 282 229 283 227 285 227 285 224 287 224 287 222 288 222 288 221 289 221 289 220 290 220 290 219 291 219 291 218 292 218 292 217 293 217 293 216 294 216 294 215 295 215 296 213 298 213 298 210 300 210 300 208 301 208 301 207 302 207 302 206 303 206 303 205 304 205 304 204 305 204 305 203 306 203 306 202 307 202 307 201 308 201 309 199 311 199 311 196 313 196 313 194 314 194 314 193 315 193 315 192 316 192 316 191 317 191 317 190 318 190 318 189 319 189 319 188 320 188 320 187 321 187 322 185 324 185 324 182 326 182 326 180 325 180 325 179 323 179 323 176 322 176 322 175 320 175 320 172 318 172 318 170 317 170 317 168 316 168 316 167 314 167 314 164 313 164 313 163 311 163 311 160 310 160 310 159 308 159 308 156 307 156 307 155 305 155 305 152 304 152 304 151 302 151 302 148 301 148 301 147 299 147 299 144 298 144 298 143 296 143 296 140 295 140 295 138 293 139 293 136 291 136 291 132 290 132 290 103 289 103 289 74 288 74 288 47 286 47 286 45 283 45 283 43 280 43 280 42 279 42 279 40 276 40 276 38 273 38 273 37 272 37 272 35 269 35 269 33 266 33 266 32 265 32 265 30 262 30 262 28 259 28 259 27 258 27 258 25 255 25 255 23 252 23 252 22 251 22 251 20 248 20 248 18 245 18 245 17 244 17 244 15 241 15 241 13 238 13 238 12 237 12 237 10 234 10 234 8 231 8 231 7 230 7 230 5 227 5 227 4 226 4 226 2 223 2 223 0 204 0 204 1 187 1 187 2 170 2 170 3 153 3 153 4 136 4 136 5 119 5 119 6 102 6 102 7 87 7 87 8 85 8 85 10 82 10 82 11 80 11 80 13 76 13 76 15 73 15 73 16 71 16 71 18 67 18 67 20 64 20 64 21 62 21 62 23 58 23 58 25 55 25 55 26 53 26 53 28 49 28 49 30 46 30 46 32 42 32 42 34 39 34 39 35 37 35 37 37 33 37 33 39 30 39 30 40 28 40 28 42 24 42 24 44 21 44 21 45 19 45 19 47 15 47 15 49 12 49 12 50 10 50 10 52 6 52 6 54 3 54 3 55 2 55 2 70 1 70 1 87 0 87 0 88 1 88 " transform="matrix(1,0,0,1,4,5)"/>
<path style="fill: #524632; mix-blend-mode: source-over; fill-opacity: 1;" sketchjs:tool="floodfill" d="M1 88 L1 95 2 95 2 101 3 101 3 107 4 107 4 113 5 113 5 119 6 119 6 126 7 126 7 132 9 132 9 144 10 144 10 146 11 146 11 148 12 148 12 150 13 150 13 152 14 152 14 155 15 155 15 156 17 156 17 160 19 160 19 164 21 164 21 167 22 167 22 169 23 169 23 171 24 171 24 173 25 173 25 175 26 175 26 177 27 177 27 179 28 179 28 181 29 181 29 183 30 183 30 185 31 185 31 187 32 187 32 189 33 189 33 191 34 191 34 193 35 193 35 195 36 195 36 197 37 197 37 199 38 199 38 201 39 201 39 203 40 203 40 205 41 205 41 207 42 207 42 208 45 208 45 209 49 209 49 210 53 210 53 211 57 211 57 212 61 212 61 213 65 213 65 214 69 214 69 215 74 215 74 216 78 216 78 217 82 217 82 218 86 218 86 219 90 219 90 220 94 220 94 221 98 221 98 222 102 222 102 223 106 223 106 224 110 224 110 225 115 225 115 226 119 226 119 227 124 227 124 228 125 228 125 229 127 229 127 230 130 230 130 231 133 231 133 232 136 232 136 233 139 233 139 234 144 234 144 235 145 235 145 236 147 236 147 237 150 237 150 238 153 238 153 239 156 239 156 240 161 240 161 242 164 242 164 243 167 243 167 244 170 244 170 245 173 245 173 246 179 246 179 248 181 248 181 249 184 249 184 250 187 250 187 251 190 251 190 252 194 252 194 251 261 251 261 250 262 250 262 249 263 249 263 248 264 248 264 247 265 247 265 246 266 246 266 245 267 245 268 243 270 243 270 241 272 241 272 238 274 238 274 236 275 236 275 235 276 235 276 234 277 234 277 233 278 233 278 232 279 232 279 231 280 231 281 229 283 229 283 227 285 227 285 224 287 224 287 222 288 222 288 221 289 221 289 220 290 220 290 219 291 219 291 218 292 218 292 217 293 217 294 215 296 215 296 213 298 213 298 210 300 210 300 208 301 208 301 207 302 207 302 206 303 206 303 205 304 205 304 204 305 204 305 203 306 203 307 201 309 201 309 199 311 199 311 196 313 196 313 194 314 194 314 193 315 193 315 192 316 192 316 191 317 191 317 190 318 190 318 189 319 189 320 187 322 187 322 185 324 185 324 182 326 182 326 180 325 180 325 179 323 179 323 176 322 176 322 175 320 175 320 172 318 172 318 170 317 170 317 168 316 168 316 167 314 167 314 164 313 164 313 163 311 163 311 160 310 160 310 159 308 159 308 156 307 156 307 155 305 155 305 152 304 152 304 151 302 151 302 148 301 148 301 147 299 147 299 144 298 144 298 143 296 143 296 140 295 140 295 138 293 139 293 136 291 136 291 132 290 132 290 103 289 103 289 74 288 74 288 47 286 47 286 45 283 45 283 43 280 43 280 42 279 42 279 40 276 40 276 38 273 38 273 37 272 37 272 35 269 35 269 33 266 33 266 32 265 32 265 30 262 30 262 28 259 28 259 27 258 27 258 25 255 25 255 23 252 23 252 22 251 22 251 20 248 20 248 18 245 18 245 17 244 17 244 15 241 15 241 13 238 13 238 12 237 12 237 10 234 10 234 8 231 8 231 7 230 7 230 5 227 5 227 4 226 4 226 2 223 2 223 0 204 0 204 1 187 1 187 2 170 2 170 3 153 3 153 4 136 4 136 5 119 5 119 6 102 6 102 7 87 7 87 8 85 8 85 10 82 10 82 11 80 11 80 13 76 13 76 15 73 15 73 16 71 16 71 18 67 18 67 20 64 20 64 21 62 21 62 23 58 23 58 25 55 25 55 26 53 26 53 28 49 28 49 30 46 30 46 32 42 32 42 34 39 34 39 35 37 35 37 37 33 37 33 39 30 39 30 40 28 40 28 42 24 42 24 44 21 44 21 45 19 45 19 47 15 47 15 49 12 49 12 50 10 50 10 52 6 52 6 54 3 54 3 55 2 55 2 70 1 70 1 87 0 87 0 88 1 88 " transform="matrix(1,0,0,1,4,5)"/>
<path style="fill: #6d6161; mix-blend-mode: source-over; fill-opacity: 1;" sketchjs:tool="floodfill" d="M1 88 L1 95 2 95 2 101 3 101 3 107 4 107 4 113 5 113 5 119 6 119 6 126 7 126 7 132 9 132 9 144 10 144 10 146 11 146 11 148 12 148 12 150 13 150 13 152 14 152 14 155 15 155 15 156 17 156 17 160 19 160 19 164 21 164 21 167 22 167 22 169 23 169 23 171 24 171 24 173 25 173 25 175 26 175 26 177 27 177 27 179 28 179 28 181 29 181 29 183 30 183 30 185 31 185 31 187 32 187 32 189 33 189 33 191 34 191 34 193 35 193 35 195 36 195 36 197 37 197 37 199 38 199 38 201 39 201 39 203 40 203 40 205 41 205 41 207 42 207 42 208 45 208 45 209 49 209 49 210 53 210 53 211 57 211 57 212 61 212 61 213 65 213 65 214 69 214 69 215 74 215 74 216 78 216 78 217 82 217 82 218 86 218 86 219 90 219 90 220 94 220 94 221 98 221 98 222 102 222 102 223 106 223 106 224 110 224 110 225 115 225 115 226 119 226 119 227 124 227 124 228 125 228 125 229 127 229 127 230 130 230 130 231 133 231 133 232 136 232 136 233 139 233 139 234 144 234 145 236 147 236 147 237 150 237 150 238 153 238 153 239 156 239 156 240 161 240 161 242 164 242 164 243 167 243 167 244 170 244 170 245 173 245 173 246 179 246 179 248 181 248 181 249 184 249 184 250 187 250 187 251 261 251 261 250 262 250 262 249 263 249 263 248 264 248 264 247 265 247 265 246 266 246 266 245 267 245 268 243 270 243 270 241 272 241 272 238 274 238 274 236 275 236 275 235 276 235 276 234 277 234 277 233 278 233 278 232 279 232 279 231 280 231 281 229 283 229 283 227 285 227 285 224 287 224 287 222 288 222 288 221 289 221 289 220 290 220 290 219 291 219 291 218 292 218 292 217 293 217 294 215 296 215 296 213 298 213 298 210 300 210 300 208 301 208 301 207 302 207 302 206 303 206 303 205 304 205 304 204 305 204 305 203 306 203 307 201 309 201 309 199 311 199 311 196 313 196 313 194 314 194 314 193 315 193 315 192 316 192 316 191 317 191 317 190 318 190 318 189 319 189 320 187 322 187 322 185 324 185 324 182 326 182 326 180 325 180 325 179 323 179 323 176 322 176 322 175 320 175 320 172 318 172 318 170 317 170 317 168 316 168 316 167 314 167 314 164 313 164 313 163 311 163 311 160 310 160 310 159 308 159 308 156 307 156 307 155 305 155 305 152 304 152 304 151 302 151 302 148 301 148 301 147 299 147 299 144 298 144 298 143 296 143 296 140 295 140 295 138 293 139 293 136 291 136 291 132 290 132 290 103 289 103 289 74 288 74 288 47 286 47 286 45 283 45 283 43 280 43 280 42 279 42 279 40 276 40 276 38 273 38 273 37 272 37 272 35 269 35 269 33 266 33 266 32 265 32 265 30 262 30 262 28 259 28 259 27 258 27 258 25 255 25 255 23 252 23 252 22 251 22 251 20 248 20 248 18 245 18 245 17 244 17 244 15 241 15 241 13 238 13 238 12 237 12 237 10 234 10 234 8 231 8 231 7 230 7 230 5 227 5 227 4 226 4 226 2 223 2 223 0 204 0 204 1 187 1 187 2 170 2 170 3 153 3 153 4 136 4 136 5 119 5 119 6 102 6 102 7 87 7 87 8 85 8 85 10 82 10 82 11 80 11 80 13 76 13 76 15 73 15 73 16 71 16 71 18 67 18 67 20 64 20 64 21 62 21 62 23 58 23 58 25 55 25 55 26 53 26 53 28 49 28 49 30 46 30 46 32 42 32 42 34 39 34 39 35 37 35 37 37 33 37 33 39 30 39 30 40 28 40 28 42 24 42 24 44 21 44 21 45 19 45 19 47 15 47 15 49 12 49 12 50 10 50 10 52 6 52 6 54 3 54 3 55 2 55 2 70 1 70 1 87 0 87 0 88 1 88 " transform="matrix(1,0,0,1,4,5)"/>
</svg>